<?xml version="1.0" standalone="no"?>
<!DOCTYPE svg PUBLIC "-//W3C//DTD SVG 20010904//EN"
 "http://www.w3.org/TR/2001/REC-SVG-20010904/DTD/svg10.dtd">
<svg version="1.0" xmlns="http://www.w3.org/2000/svg"
 width="5000.000000pt" height="5000.000000pt" viewBox="0 0 5000.000000 5000.000000"
 preserveAspectRatio="xMidYMid meet">

<g transform="translate(0.000000,5000.000000) scale(0.100000,-0.100000)"
fill="#000000" stroke="none">
<path d="M38059 49990 c-836 -69 -1646 -376 -2396 -906 -570 -404 -1086 -935
-1483 -1529 -84 -126 -836 -1281 -1458 -2241 -84 -130 -150 -240 -145 -244 8
-9 261 -173 958 -625 232 -150 493 -319 580 -377 168 -109 1671 -1085 1847
-1199 57 -37 186 -121 288 -187 102 -66 356 -232 565 -367 209 -136 517 -336
685 -445 168 -109 384 -249 480 -311 96 -62 231 -150 300 -195 69 -45 341
-222 605 -393 l479 -311 139 213 c583 893 1452 2235 1517 2342 714 1184 993
2518 785 3755 -114 677 -391 1303 -797 1802 -534 656 -1300 1079 -2171 1199
-169 23 -604 34 -778 19z"/>
<path d="M31975 44164 c-55 -85 -155 -239 -222 -342 -68 -103 -123 -189 -123
-192 1 -3 22 -18 48 -35 26 -16 148 -95 272 -175 124 -81 477 -310 785 -510
308 -200 783 -508 1055 -685 272 -177 671 -436 885 -575 215 -139 426 -277
470 -305 44 -29 472 -306 950 -617 479 -311 1059 -688 1290 -838 231 -150 463
-301 515 -334 52 -34 190 -124 307 -200 117 -76 216 -135 221 -132 5 3 58 81
118 173 59 93 155 240 212 327 57 88 106 165 108 171 3 7 -49 47 -118 92 -272
177 -960 624 -1068 694 -182 118 -693 449 -835 542 -71 47 -281 183 -465 302
-184 120 -373 243 -420 273 -47 31 -166 108 -265 172 -99 64 -218 141 -265
172 -403 262 -1190 773 -1475 958 -192 125 -402 260 -465 302 -230 150 -1395
905 -1405 911 -6 3 -55 -64 -110 -149z"/>
<path d="M30745 42270 c-214 -330 -430 -662 -479 -737 -137 -212 -549 -846
-966 -1488 -314 -484 -1116 -1719 -1305 -2010 -29 -44 -169 -260 -312 -480
-143 -220 -736 -1133 -1318 -2030 -582 -896 -1086 -1673 -1120 -1725 -34 -52
-316 -486 -627 -965 -311 -478 -594 -915 -630 -970 -139 -214 -597 -918 -825
-1270 -230 -354 -1351 -2081 -1883 -2900 -139 -214 -281 -433 -315 -485 -34
-52 -233 -358 -442 -680 -209 -322 -543 -837 -743 -1145 -200 -308 -396 -609
-435 -670 -40 -60 -152 -234 -250 -385 -98 -151 -269 -414 -380 -585 -111
-170 -287 -440 -390 -600 -104 -159 -212 -326 -240 -370 -29 -44 -223 -343
-432 -665 -488 -752 -993 -1530 -1068 -1645 -32 -49 -100 -153 -150 -230 -113
-175 -1056 -1627 -1303 -2008 -101 -155 -223 -343 -271 -417 -49 -74 -176
-270 -283 -435 -107 -165 -336 -518 -510 -785 -173 -267 -452 -696 -620 -955
-168 -258 -448 -690 -623 -960 -175 -269 -456 -701 -623 -960 -168 -258 -456
-702 -640 -985 -184 -283 -370 -569 -413 -635 -42 -66 -139 -214 -214 -330
-342 -525 -420 -647 -480 -741 l-65 -100 266 -660 c146 -362 305 -757 352
-876 48 -120 89 -218 92 -218 3 0 35 46 72 103 159 245 1161 1787 2187 3367
280 432 564 868 630 970 66 102 349 538 630 970 280 432 547 844 594 915 47
72 256 393 464 715 209 322 422 650 474 730 52 80 123 188 156 240 34 52 154
237 267 410 655 1008 901 1388 1261 1942 104 161 268 415 365 563 97 149 378
582 625 962 248 381 480 739 517 795 37 57 94 146 128 198 34 52 123 190 198
305 75 116 265 408 422 650 157 241 317 489 357 550 39 60 109 169 156 240 47
72 156 240 244 375 87 135 307 473 488 753 182 279 417 641 523 805 106 163
228 351 271 417 43 66 167 257 276 424 108 167 221 340 250 385 28 45 165 254
302 466 137 212 283 437 325 500 70 108 209 321 1003 1545 175 270 381 587
458 705 77 118 172 264 211 325 381 587 850 1310 961 1480 170 261 745 1147
880 1355 174 268 1109 1709 1198 1845 47 72 118 182 159 245 42 63 359 552
705 1085 346 534 654 1008 685 1055 113 174 721 1111 1016 1565 331 509 528
813 984 1515 162 250 431 664 597 919 238 367 299 467 289 476 -7 7 -123 83
-258 170 -135 87 -418 271 -629 408 -212 137 -390 251 -395 253 -6 2 -186
-266 -401 -596z"/>
<path d="M33027 41593 c-14 -21 -273 -420 -577 -888 -618 -951 -1040 -1601
-1145 -1763 -75 -116 -322 -497 -670 -1032 -120 -184 -310 -478 -424 -653
-113 -174 -268 -413 -344 -530 -404 -621 -995 -1532 -1287 -1982 -125 -192
-274 -422 -331 -510 -58 -88 -224 -343 -369 -568 -146 -224 -368 -566 -494
-760 -126 -193 -326 -503 -446 -687 -119 -184 -255 -393 -302 -465 -47 -71
-280 -431 -520 -800 -239 -368 -661 -1019 -938 -1445 -277 -426 -532 -820
-568 -875 -36 -55 -142 -219 -237 -365 -95 -146 -352 -542 -572 -880 -219
-338 -438 -676 -487 -750 -147 -227 -457 -704 -587 -905 -154 -237 -1194
-1839 -1296 -1995 -41 -63 -304 -468 -584 -900 -281 -432 -713 -1098 -961
-1480 -501 -771 -1104 -1700 -1207 -1857 -36 -57 -125 -194 -198 -305 -72
-112 -165 -255 -206 -318 -41 -63 -196 -302 -344 -530 -149 -228 -549 -845
-890 -1370 -341 -525 -661 -1018 -711 -1095 -50 -77 -291 -448 -536 -825 -244
-377 -491 -757 -548 -845 -58 -88 -203 -312 -324 -498 -239 -367 -366 -564
-1029 -1585 -241 -372 -539 -830 -660 -1017 -182 -279 -1078 -1659 -1283
-1975 -31 -47 -97 -149 -149 -228 -90 -139 -101 -158 -85 -149 4 3 99 8 212
11 113 4 246 9 295 11 50 2 162 7 250 10 825 28 949 35 961 47 6 7 222 339
481 738 516 795 843 1300 908 1400 24 36 257 396 520 800 262 404 511 787 552
850 78 120 487 749 714 1100 73 113 313 482 533 820 219 338 463 714 542 835
78 121 180 279 227 350 219 335 339 521 687 1057 206 318 405 624 442 680 37
57 94 146 128 198 34 52 117 181 185 285 68 105 169 260 224 345 55 85 226
349 380 585 153 237 335 516 402 620 68 105 164 253 214 330 176 270 353 542
530 815 98 151 206 318 240 370 34 52 235 361 445 685 211 325 413 635 448
690 36 55 89 136 117 180 29 44 140 215 247 380 107 165 303 467 435 670 132
204 269 415 305 470 36 55 271 417 523 805 252 388 526 810 609 938 83 128
238 366 344 530 106 163 228 351 271 417 43 66 138 212 211 325 73 113 215
331 315 485 100 154 388 597 640 985 252 388 550 848 664 1023 113 174 238
366 276 425 39 60 210 323 380 585 171 263 344 530 386 595 71 110 831 1280
1557 2397 179 275 344 529 367 565 82 126 960 1478 1109 1708 83 127 187 287
230 355 133 204 594 914 680 1047 187 286 746 1148 811 1248 139 215 441 680
530 817 312 478 985 1516 985 1520 0 2 -37 27 -82 56 -46 29 -132 85 -193 124
-293 191 -881 572 -892 579 -8 4 -21 -7 -36 -31z"/>
<path d="M34629 40142 c-117 -180 -245 -376 -284 -437 -40 -60 -292 -450 -562
-865 -269 -415 -532 -820 -584 -900 -104 -159 -757 -1164 -1047 -1612 -101
-156 -236 -364 -301 -463 -64 -99 -265 -408 -446 -688 -182 -279 -413 -636
-515 -792 -102 -157 -241 -372 -310 -478 -68 -105 -199 -307 -290 -447 -92
-140 -191 -293 -222 -340 -97 -150 -896 -1382 -1421 -2190 -281 -432 -534
-821 -562 -865 -29 -44 -146 -224 -260 -400 -114 -176 -227 -349 -250 -385
-23 -36 -130 -200 -237 -365 -591 -910 -845 -1302 -968 -1490 -75 -115 -207
-318 -292 -450 -85 -132 -198 -305 -250 -385 -52 -80 -115 -176 -140 -215 -60
-93 -596 -919 -990 -1525 -716 -1102 -826 -1272 -1068 -1645 -314 -484 -512
-788 -1000 -1540 -211 -324 -494 -761 -630 -970 -136 -209 -271 -418 -302
-465 -59 -91 -771 -1187 -948 -1460 -59 -91 -370 -570 -692 -1065 -321 -495
-624 -962 -674 -1038 -49 -75 -123 -190 -165 -255 -42 -64 -174 -268 -294
-452 -120 -184 -339 -522 -487 -750 -148 -228 -461 -710 -695 -1070 -462 -710
-463 -712 -823 -1267 -134 -208 -299 -461 -365 -563 -114 -174 -319 -491 -674
-1038 -190 -293 -1268 -1953 -1327 -2042 -353 -541 -514 -797 -511 -810 2 -8
134 -337 292 -730 159 -393 299 -743 313 -777 14 -35 29 -63 33 -63 4 0 38 48
77 108 38 59 157 242 264 407 107 165 307 473 445 685 1081 1665 1282 1973
1370 2110 55 85 147 227 204 315 58 88 195 298 304 468 110 169 259 398 332
510 72 111 201 310 287 442 85 132 281 434 435 670 153 237 335 516 402 620
68 105 173 267 234 360 61 94 253 388 425 655 582 896 1327 2044 1413 2175 47
72 269 414 494 760 369 569 873 1345 1385 2132 103 159 213 329 245 378 31 50
115 178 184 285 70 107 161 247 202 310 41 63 117 180 169 260 52 80 115 177
140 215 40 62 570 879 1311 2020 143 220 338 519 432 665 94 146 205 317 247
380 41 63 155 239 253 390 98 151 211 325 250 385 40 61 156 241 260 400 103
160 328 506 500 770 171 264 397 611 500 770 104 160 216 333 250 385 126 194
584 900 1120 1725 304 468 591 911 640 985 48 74 107 164 130 200 56 86 348
537 802 1235 203 314 542 836 753 1160 211 325 523 806 695 1070 171 264 563
867 870 1340 307 473 591 910 630 970 40 61 156 241 260 400 103 160 250 385
325 500 75 116 182 280 237 365 55 85 129 200 165 255 36 55 132 204 214 330
254 390 935 1439 1006 1547 36 57 119 184 183 283 64 99 157 242 207 318 49
77 88 140 86 142 -2 2 -78 52 -170 112 -92 59 -330 214 -529 343 -199 129
-388 252 -420 272 l-58 38 -212 -328z"/>
<path d="M35895 38175 c-401 -619 -814 -1255 -917 -1413 -102 -158 -221 -341
-264 -407 -87 -135 -823 -1268 -1299 -2000 -171 -264 -478 -736 -682 -1050
-945 -1456 -1876 -2889 -1935 -2980 -36 -55 -237 -365 -448 -690 -211 -324
-423 -651 -471 -725 -130 -200 -328 -505 -466 -717 -67 -104 -160 -246 -206
-318 -47 -71 -235 -362 -419 -645 -1036 -1597 -1269 -1955 -1333 -2052 -66
-101 -345 -531 -752 -1159 -100 -155 -222 -343 -271 -418 -88 -135 -194 -297
-787 -1211 -170 -261 -336 -518 -370 -570 -34 -52 -264 -405 -510 -785 -563
-867 -538 -827 -750 -1155 -98 -151 -296 -455 -438 -675 -143 -220 -289 -445
-325 -500 -106 -162 -389 -600 -692 -1065 -156 -239 -316 -487 -357 -550 -86
-132 -303 -468 -833 -1283 -206 -317 -428 -659 -493 -760 -65 -100 -158 -243
-206 -317 -49 -74 -290 -445 -536 -825 -1100 -1694 -1835 -2825 -2033 -3130
-118 -181 -248 -382 -289 -445 -41 -63 -108 -167 -149 -230 -41 -63 -521 -802
-1067 -1642 -546 -841 -1059 -1630 -1140 -1755 -81 -126 -153 -236 -158 -247
-11 -18 -7 -18 92 -12 57 3 232 11 389 16 157 5 341 12 410 15 69 2 195 7 280
10 152 6 221 8 550 21 91 3 168 9 172 12 3 4 166 252 360 552 194 300 448 690
563 868 116 177 263 404 328 505 65 100 158 243 206 317 49 74 117 180 153
235 124 190 825 1270 880 1355 30 47 143 220 250 385 107 165 336 518 510 785
173 267 427 658 565 870 137 212 421 648 630 970 209 322 463 713 565 870 101
157 209 323 240 370 30 47 393 605 805 1240 412 635 779 1200 815 1255 110
169 579 891 828 1275 130 201 277 426 325 500 48 74 107 164 130 200 218 337
926 1427 977 1505 36 55 238 366 448 690 211 325 407 626 435 670 29 44 207
319 396 610 190 292 434 668 544 837 285 438 916 1411 1284 1978 173 267 356
548 406 625 50 77 112 172 137 210 71 110 467 720 1250 1925 335 517 473 729
1068 1645 207 319 414 638 461 710 46 71 312 481 591 910 278 429 544 839 591
910 47 72 256 393 464 715 209 322 422 650 474 730 52 80 123 188 156 240 34
52 154 237 267 410 657 1011 905 1393 1261 1942 104 161 260 401 346 533 542
832 1029 1586 1029 1593 0 8 -1284 842 -1296 842 -5 0 -337 -507 -739 -1125z"/>
<path d="M9972 9493 c-45 -230 -163 -839 -182 -933 -18 -91 -58 -295 -205
-1055 -36 -187 -70 -360 -75 -385 -5 -25 -35 -175 -65 -335 -102 -526 -195
-1009 -210 -1080 -8 -38 -39 -200 -70 -360 -31 -159 -85 -441 -121 -625 -36
-184 -81 -416 -100 -515 -19 -99 -41 -210 -48 -246 l-13 -67 196 -126 c108
-70 327 -212 486 -316 160 -104 331 -215 380 -246 50 -32 153 -100 230 -150
824 -538 1183 -768 1200 -768 11 0 643 436 1405 970 762 533 1831 1282 2377
1664 829 581 988 696 965 699 -15 2 -175 -2 -357 -8 -307 -11 -393 -14 -695
-26 -295 -12 -556 -20 -668 -20 l-123 0 -93 230 c-51 127 -270 669 -486 1207
l-392 976 -62 -3 c-33 -2 -135 -6 -226 -10 -253 -8 -700 -24 -847 -30 -73 -3
-195 -7 -270 -10 -76 -3 -194 -7 -263 -10 -69 -3 -192 -7 -275 -10 -82 -3
-264 -10 -404 -15 -140 -6 -256 -9 -258 -7 -3 3 -552 1364 -665 1650 -17 42
-34 77 -38 77 -3 0 -16 -53 -28 -117z"/>
<path d="M8697 2923 c-8 -29 -33 -152 -87 -433 -57 -296 -152 -782 -264 -1360
-169 -864 -216 -1114 -214 -1120 2 -4 553 378 1226 849 1144 801 1221 857
1203 871 -11 8 -66 45 -123 81 -56 37 -161 105 -233 151 -71 47 -303 197 -515
335 -212 137 -515 334 -675 438 -159 103 -295 192 -302 197 -7 6 -13 3 -16 -9z"/>
</g>
</svg>
