<?xml version="1.0" standalone="no"?>
<!DOCTYPE svg PUBLIC "-//W3C//DTD SVG 20010904//EN"
 "http://www.w3.org/TR/2001/REC-SVG-20010904/DTD/svg10.dtd">
<svg version="1.0" xmlns="http://www.w3.org/2000/svg"
 width="1700.000000pt" height="1600.000000pt" viewBox="0 0 1700.000000 1600.000000"
 preserveAspectRatio="xMidYMid meet">

<g transform="translate(0.000000,1600.000000) scale(0.100000,-0.100000)"
fill="#000000" stroke="none">
<path d="M3487 12700 c-200 -36 -421 -151 -615 -319 -90 -77 -122 -96 -229
-136 -90 -34 -217 -102 -289 -156 -503 -371 -875 -1189 -1029 -2264 -14 -93
-25 -171 -25 -171 0 -1 -98 -4 -217 -7 -266 -6 -289 -11 -364 -86 -121 -122
-168 -299 -169 -636 0 -402 79 -629 247 -711 53 -26 61 -27 279 -32 123 -3
224 -6 224 -7 0 -23 68 -442 91 -555 119 -607 361 -1191 645 -1561 164 -213
380 -385 578 -459 137 -51 179 -75 268 -152 167 -146 335 -240 521 -290 119
-33 345 -33 467 0 358 96 701 410 965 881 324 581 534 1320 615 2172 l12 127
135 7 c74 4 193 4 264 0 115 -6 129 -9 123 -24 -105 -249 -91 -518 40 -786
116 -237 444 -745 993 -1538 215 -311 204 -286 223 -512 6 -71 20 -175 31
-230 10 -55 19 -135 19 -178 0 -95 -42 -464 -166 -1467 -140 -1130 -213 -1736
-220 -1820 -8 -92 -6 -94 126 -143 478 -178 1121 -257 1847 -228 615 25 1145
136 1503 316 l93 47 -7 371 c-3 205 -15 712 -26 1127 -42 1632 -43 1687 -26
1783 9 48 20 179 26 290 6 111 15 227 21 257 16 76 65 216 171 480 145 363
195 511 258 770 69 280 97 505 114 894 13 297 14 302 44 385 17 46 37 109 43
141 l11 57 67 7 c140 13 423 0 441 -21 4 -4 22 -129 39 -277 64 -537 146 -912
295 -1342 250 -726 649 -1270 1078 -1474 182 -86 393 -120 575 -90 200 32 399
133 594 300 105 91 138 112 223 139 452 145 855 665 1115 1436 92 274 155 547
212 915 16 107 32 207 35 221 l5 27 222 5 c142 3 235 9 259 17 82 29 159 124
208 258 47 130 55 203 54 477 -1 236 -2 256 -26 346 -29 107 -82 220 -129 273
-17 19 -56 48 -87 63 -54 26 -62 27 -270 33 -242 6 -236 4 -247 89 -51 414
-180 952 -301 1256 -67 166 -202 445 -276 568 -142 234 -341 450 -524 569 -61
39 -150 82 -255 124 -95 37 -125 56 -234 152 -252 221 -574 332 -846 293 -621
-91 -1152 -759 -1472 -1851 -105 -358 -169 -688 -217 -1120 -11 -102 -23 -197
-26 -212 l-6 -28 -261 0 -262 1 -35 62 c-54 97 -178 214 -280 265 -108 53
-179 72 -307 79 l-101 6 -6 106 c-9 160 -25 271 -46 318 -52 118 -247 262
-426 314 -143 41 -262 37 -440 -17 -45 -13 -86 -24 -91 -24 -5 0 -22 39 -37
88 -71 221 -157 333 -316 410 -248 120 -480 134 -766 47 -47 -14 -90 -23 -96
-19 -6 4 -39 28 -74 55 -78 59 -170 103 -271 131 -64 17 -106 21 -233 21 -167
0 -243 -12 -366 -58 -273 -102 -544 -390 -602 -638 -15 -64 -17 -133 -14 -604
l3 -531 -78 -8 c-96 -10 -978 -12 -1013 -2 -25 7 -25 9 -63 310 -21 167 -54
386 -73 488 -245 1306 -823 2224 -1506 2390 -94 23 -287 34 -361 20z m342
-160 c123 -30 330 -131 234 -115 -217 37 -258 40 -473 40 -195 -1 -238 -4
-324 -23 -55 -12 -101 -20 -103 -18 -9 9 160 87 228 105 101 27 108 28 239 30
84 1 137 -4 199 -19z m9884 -18 c108 -44 196 -91 173 -92 -11 0 -69 10 -130
21 -99 19 -133 21 -316 16 -137 -4 -245 -13 -325 -26 -66 -12 -122 -21 -124
-21 -18 0 33 34 96 63 137 65 205 77 388 74 154 -3 163 -5 238 -35z m-10236
-253 c71 -34 94 -110 53 -176 -10 -18 -64 -88 -118 -156 -330 -413 -564 -859
-685 -1307 -123 -450 -188 -1135 -173 -1810 8 -327 24 -712 32 -752 3 -17 1
-28 -5 -28 -13 0 -47 68 -96 193 -29 73 -41 94 -48 82 -4 -9 -11 -74 -14 -146
-3 -71 -9 -132 -13 -134 -4 -2 -38 61 -75 140 -38 80 -72 145 -76 145 -4 0
-10 -35 -13 -77 -12 -155 -21 -218 -31 -218 -5 0 -37 54 -70 120 l-60 120 -3
-54 c-2 -29 6 -135 18 -235 62 -537 192 -1053 368 -1456 84 -193 201 -410 221
-410 5 0 5 19 1 43 -16 92 -20 147 -11 147 5 0 33 -42 62 -92 153 -273 312
-462 483 -577 162 -110 272 -145 446 -144 168 1 313 46 454 141 67 45 60 49
-96 54 -124 3 -150 7 -191 27 -26 12 -47 27 -47 31 0 8 14 11 135 25 28 3 88
15 134 26 312 77 545 285 716 641 88 182 186 508 184 613 l0 40 -24 -50 c-13
-27 -53 -112 -89 -187 -35 -76 -67 -138 -70 -138 -3 0 -3 6 -1 13 121 361 210
776 270 1247 9 69 22 149 31 178 19 69 77 126 147 147 85 25 87 24 87 -49 0
-36 -9 -138 -21 -228 -138 -1092 -468 -1938 -939 -2408 -121 -120 -221 -193
-353 -255 -124 -59 -191 -75 -328 -82 -133 -6 -236 10 -353 57 -157 62 -259
135 -422 302 -124 125 -145 151 -216 253 -372 540 -627 1340 -722 2270 -50
486 -46 1130 10 1625 74 658 255 1321 487 1785 154 308 328 551 454 631 63 41
186 83 273 94 105 14 246 4 297 -21z m10403 21 c228 -24 350 -101 506 -320
386 -541 642 -1349 750 -2375 25 -234 25 -1097 0 -1340 -74 -732 -220 -1338
-441 -1840 -151 -344 -323 -603 -541 -816 -189 -184 -335 -269 -538 -314 -104
-23 -288 -16 -396 15 -272 78 -518 283 -745 621 -288 427 -505 1021 -629 1719
-34 194 -76 525 -76 605 l0 65 30 0 c60 0 151 -56 185 -115 26 -43 33 -84 80
-430 43 -318 107 -613 191 -882 20 -62 34 -120 32 -130 -2 -10 -39 62 -82 160
-43 97 -82 177 -87 177 -20 0 32 -243 90 -421 48 -148 148 -353 225 -464 104
-149 247 -275 393 -349 73 -37 201 -72 334 -92 63 -9 118 -20 122 -24 12 -10
-52 -38 -114 -50 -28 -6 -101 -10 -160 -10 -60 0 -109 -3 -109 -7 0 -23 177
-117 295 -158 76 -27 281 -32 381 -11 118 26 263 100 361 185 143 124 303 332
417 544 26 48 52 87 57 87 10 0 9 -6 -16 -142 -7 -38 -9 -68 -4 -68 24 0 168
276 248 472 171 425 285 905 351 1483 11 93 16 173 11 178 -10 10 -27 -15 -85
-131 -25 -51 -50 -92 -55 -92 -4 0 -13 62 -19 137 -7 75 -16 141 -21 146 -6 6
-35 -42 -78 -132 -75 -157 -79 -158 -83 -21 -1 41 -5 100 -9 130 l-8 55 -24
-54 c-88 -200 -105 -235 -118 -239 -10 -4 -12 2 -8 24 29 137 34 1312 8 1634
-48 584 -133 973 -296 1355 -124 289 -332 633 -530 875 -132 162 -147 187
-142 238 7 69 53 109 141 122 74 11 100 11 206 0z m-9635 -174 c57 -15 120
-45 185 -89 66 -45 196 -173 245 -242 183 -257 380 -769 495 -1285 86 -382
169 -990 135 -983 -98 19 -179 81 -214 163 -12 28 -31 108 -42 178 -73 456
-106 635 -149 810 -131 526 -302 883 -520 1085 -83 77 -149 114 -238 132 -356
74 -686 -370 -901 -1210 -178 -700 -240 -1727 -155 -2590 86 -884 317 -1613
622 -1963 30 -35 52 -66 48 -69 -10 -10 -136 81 -222 161 -176 163 -306 369
-429 680 -257 653 -343 1706 -234 2891 82 896 247 1497 521 1897 161 235 372
392 593 441 45 10 213 6 260 -7z m8928 -14 c376 -136 655 -515 837 -1139 75
-254 148 -665 190 -1067 40 -379 45 -502 45 -1046 0 -531 -4 -638 -40 -960
-88 -786 -330 -1393 -678 -1698 -99 -87 -235 -176 -201 -131 6 8 39 49 73 93
82 104 120 165 185 294 196 391 334 934 400 1577 57 541 60 1180 11 1707 -80
848 -280 1523 -560 1896 -65 86 -176 187 -248 224 -59 31 -67 33 -172 33 -98
0 -116 -3 -167 -27 -165 -77 -307 -247 -438 -521 -160 -337 -271 -755 -354
-1332 -42 -289 -62 -353 -132 -414 -46 -41 -117 -76 -138 -68 -21 8 -21 76 -1
255 85 761 329 1569 595 1968 69 104 207 243 302 304 101 66 161 81 308 76 95
-2 139 -8 183 -24z m-10473 0 c0 -12 -83 -123 -111 -149 -13 -12 -69 -41 -124
-63 -55 -23 -122 -53 -149 -66 -27 -14 -54 -23 -60 -21 -16 6 119 137 191 185
124 84 253 142 253 114z m11796 -32 c101 -49 350 -247 332 -265 -3 -3 -29 5
-56 19 -28 14 -97 44 -154 67 -57 22 -116 53 -132 67 -28 27 -106 135 -106
148 0 11 52 -5 116 -36z m-10471 -470 c219 -105 425 -537 550 -1154 62 -309
113 -695 117 -906 3 -109 2 -115 -18 -118 -30 -4 -48 22 -89 128 -37 98 -69
155 -113 203 l-26 27 -232 0 -231 0 -43 -46 c-79 -86 -134 -238 -167 -463 -23
-157 -23 -549 1 -706 44 -294 125 -477 224 -505 59 -16 407 -13 440 4 65 34
110 104 157 241 27 82 52 115 86 115 24 0 24 -9 4 -257 -68 -853 -288 -1588
-555 -1855 -74 -74 -125 -97 -211 -98 -90 0 -149 31 -236 124 -176 189 -313
533 -422 1056 -86 419 -130 863 -138 1415 -10 708 49 1290 187 1845 104 417
223 686 378 851 122 130 215 158 337 99z m9246 5 c52 -27 164 -146 226 -242
197 -302 356 -920 427 -1663 59 -607 43 -1358 -39 -1925 -119 -820 -354 -1412
-613 -1544 -192 -98 -396 72 -565 470 -148 347 -242 780 -307 1416 -24 233
-25 292 -6 299 29 11 54 -17 82 -88 67 -179 125 -261 191 -272 76 -12 392 -7
426 8 90 37 186 266 218 521 17 139 14 531 -5 674 -21 152 -51 270 -92 360
-73 160 -85 165 -371 160 -224 -4 -231 -7 -280 -80 -15 -23 -46 -89 -69 -147
-31 -79 -49 -111 -68 -122 -47 -27 -51 -10 -38 167 66 883 279 1629 544 1909
86 92 160 127 249 120 31 -2 71 -12 90 -21z m-5484 -429 c65 -21 224 -125 259
-171 14 -19 32 -55 39 -80 23 -76 36 -279 33 -510 l-3 -220 -33 -3 c-18 -2
-105 9 -195 24 -210 34 -355 36 -445 5 -146 -50 -251 -137 -315 -259 -21 -40
-42 -72 -48 -72 -5 0 -9 21 -9 48 0 50 -23 259 -41 382 -14 88 -27 118 -69
154 -33 27 -106 54 -117 42 -4 -4 -1 -26 5 -49 30 -104 43 -186 40 -248 -3
-60 -12 -84 -83 -229 l-80 -162 -7 58 c-4 33 -5 212 -2 399 l7 340 30 60 c51
102 91 157 174 242 141 141 276 221 438 257 92 21 346 16 422 -8z m-5612 -107
c-88 -251 -197 -713 -245 -1044 -31 -209 -58 -484 -71 -720 -19 -353 0 -1026
37 -1260 6 -37 5 -38 -11 -25 -9 8 -44 68 -77 134 -56 111 -61 119 -70 96 -5
-14 -8 -83 -6 -155 2 -110 1 -130 -12 -130 -8 0 -48 50 -88 110 -63 96 -92
131 -92 111 0 -26 68 -432 91 -546 77 -374 211 -761 361 -1040 153 -285 309
-484 529 -676 121 -105 200 -197 175 -202 -24 -5 -158 61 -235 115 -36 26
-120 101 -187 168 -94 94 -142 153 -212 259 -322 486 -532 1147 -623 1966 -26
231 -37 816 -20 1085 27 425 74 747 161 1095 45 181 110 396 139 460 l20 45 0
-58 c1 -41 5 -57 13 -55 7 3 32 40 55 84 52 94 152 236 172 242 11 4 12 -17 6
-122 -5 -86 -4 -126 4 -126 5 0 27 30 48 68 78 140 163 257 171 234 1 -5 -13
-57 -33 -113z m12764 42 c24 -35 64 -99 90 -143 25 -45 51 -80 56 -79 6 1 9
45 6 116 -3 96 -1 115 11 115 20 0 95 -104 168 -232 34 -60 64 -108 67 -108 3
0 2 29 -2 65 -4 41 -3 65 3 65 28 0 153 -429 216 -740 88 -430 121 -831 112
-1345 -7 -414 -14 -536 -51 -797 -145 -1045 -514 -1847 -1008 -2197 -110 -77
-227 -123 -227 -89 0 6 57 66 128 132 70 67 164 159 209 205 382 388 660 1050
787 1872 28 176 32 233 17 227 -6 -1 -43 -52 -83 -113 -40 -60 -79 -111 -86
-113 -10 -3 -12 27 -6 152 9 200 0 204 -85 37 -74 -144 -87 -157 -77 -75 48
408 58 1119 20 1514 -47 505 -130 938 -257 1350 -75 241 -78 252 -64 247 7 -2
32 -32 56 -66z m-5989 -147 c94 -28 195 -163 235 -314 16 -59 19 -372 7 -540
l-7 -85 -53 2 c-56 3 -411 57 -607 94 l-117 22 4 306 3 306 28 57 c15 31 42
69 59 83 39 33 116 72 165 85 50 12 219 3 283 -16z m1144 -593 c56 -39 94 -97
106 -160 15 -82 12 -345 -5 -447 -21 -119 -167 -741 -216 -920 -45 -164 -84
-274 -139 -391 -77 -166 -134 -220 -266 -253 -220 -57 -438 19 -554 192 -57
86 -60 113 -17 195 46 91 96 232 103 299 4 30 12 61 18 69 6 8 58 35 116 61
133 58 223 118 314 208 113 111 154 219 143 377 -6 93 -26 140 -101 237 -41
54 -56 82 -56 106 0 49 38 174 72 238 59 111 185 198 314 217 79 11 121 4 168
-28z m-1996 -262 c173 -27 317 -49 321 -49 5 0 11 -22 14 -49 8 -68 29 -104
87 -150 88 -70 261 -121 476 -142 199 -20 353 11 441 86 23 19 46 35 53 35 6
0 21 -21 33 -47 19 -41 22 -66 22 -163 0 -178 -41 -284 -153 -398 -139 -140
-376 -256 -607 -296 -120 -21 -376 -21 -509 0 -120 19 -240 55 -287 87 -61 41
-154 162 -305 397 l-29 45 -3 -95 c-5 -167 34 -365 98 -490 12 -25 47 -78 76
-119 30 -40 54 -78 54 -83 0 -28 -38 -72 -102 -120 -237 -176 -483 -260 -909
-308 -94 -11 -174 -22 -177 -24 -2 -3 7 -10 21 -15 57 -22 160 -34 294 -35 78
-1 145 -4 148 -8 12 -11 -76 -75 -170 -124 -52 -27 -95 -53 -95 -58 0 -24 223
14 351 60 39 14 73 23 76 21 14 -15 -75 -132 -216 -285 -57 -62 -101 -116 -97
-119 9 -9 198 87 290 148 142 93 365 327 481 502 21 31 40 57 42 57 5 0 89
-45 228 -123 490 -275 909 -661 1101 -1014 25 -45 50 -86 56 -89 15 -10 2 169
-22 311 -11 61 -37 167 -59 236 -22 70 -43 143 -46 163 -7 33 -5 37 21 47 46
17 237 56 384 78 199 29 485 52 650 50 125 -1 153 2 205 20 120 43 207 117
327 279 l69 92 89 0 c121 0 140 -8 140 -60 0 -53 -52 -214 -88 -270 -16 -25
-53 -72 -83 -105 -113 -123 -159 -185 -159 -214 0 -17 14 -48 33 -74 17 -25
53 -74 78 -109 70 -96 84 -143 83 -273 -2 -160 -76 -497 -174 -797 -72 -220
-120 -290 -313 -466 -184 -167 -465 -325 -786 -441 -89 -33 -166 -62 -169 -66
-24 -24 150 -53 409 -68 143 -9 211 -17 223 -26 25 -21 22 -154 -6 -228 -39
-105 -123 -172 -632 -502 -154 -100 -281 -183 -283 -185 -5 -5 -31 -733 -38
-1071 l-6 -290 26 40 c28 45 108 207 300 613 71 149 132 272 136 272 4 0 10
-8 13 -17 10 -32 26 -608 32 -1168 6 -544 6 -551 -15 -605 -31 -81 -99 -170
-230 -300 -224 -221 -465 -360 -745 -428 -109 -26 -449 -23 -659 6 -345 49
-669 121 -814 183 -42 18 -43 19 -43 67 0 82 239 1970 265 2097 14 66 85 356
158 645 l132 525 105 7 c227 15 457 65 428 93 -3 3 -65 30 -138 60 -260 106
-457 250 -605 440 -204 263 -888 1278 -1115 1655 -126 209 -165 294 -200 434
-38 149 -40 241 -7 355 28 96 45 121 188 282 241 270 453 560 604 824 70 122
189 361 274 554 36 79 78 165 95 190 32 46 107 111 130 111 7 0 41 -52 76
-115 34 -64 64 -114 67 -112 2 3 -3 45 -11 93 -9 49 -16 110 -16 137 0 43 2
47 25 47 35 0 43 -23 61 -177 21 -184 27 -190 44 -43 14 125 30 202 43 219 14
17 46 13 445 -50z m915 -144 c164 -30 307 -59 317 -65 29 -16 25 -57 -9 -90
-93 -94 -378 -75 -617 40 -89 43 -134 86 -134 129 0 65 7 65 443 -14z m-4578
-282 c31 -32 57 -81 91 -170 33 -86 32 -93 -13 -93 -128 0 -207 -193 -207
-500 0 -154 18 -278 55 -375 33 -90 55 -108 152 -129 23 -5 27 -11 27 -41 0
-44 -86 -212 -121 -238 -24 -17 -30 -18 -55 -5 -116 55 -205 459 -191 868 11
318 77 591 164 682 34 35 63 35 98 1z m8310 1 c105 -113 177 -498 161 -864
-13 -317 -68 -541 -163 -667 -34 -46 -63 -43 -107 8 -40 47 -96 173 -96 216 0
26 5 30 63 48 61 20 63 21 94 85 76 152 100 395 62 625 -30 182 -99 285 -191
285 -45 0 -46 3 -14 96 31 92 49 125 86 163 38 38 73 40 105 5z m-1935 -125
c142 -35 170 -266 62 -505 -22 -49 -70 -182 -106 -297 -78 -240 -141 -374
-223 -472 -65 -77 -162 -148 -226 -166 -61 -17 -205 -17 -247 0 -88 36 -220
143 -220 178 0 6 35 67 79 135 121 190 197 351 282 595 62 179 147 347 214
421 62 68 127 111 184 123 40 8 148 2 201 -12z m-6653 -45 c3 -9 -5 -73 -18
-143 -22 -117 -24 -149 -24 -461 1 -367 5 -411 65 -606 17 -53 27 -100 24
-103 -21 -21 -147 203 -184 329 -12 39 -25 68 -31 65 -5 -4 -9 -73 -9 -157 l0
-151 -21 18 c-33 31 -97 174 -115 260 -21 99 -25 454 -5 555 17 93 57 215 91
285 l30 60 -5 -115 c-6 -148 4 -165 40 -69 59 157 88 220 108 234 28 19 46 19
54 -1z m8807 6 c31 -11 56 -59 102 -193 20 -56 40 -106 45 -111 5 -6 9 41 9
120 l0 129 25 -52 c83 -180 108 -306 107 -548 0 -247 -19 -363 -73 -464 -22
-42 -48 -84 -57 -95 -16 -18 -17 -17 -23 10 -3 16 -4 85 -2 154 l4 125 -39
-90 c-21 -49 -50 -112 -64 -140 -35 -67 -120 -183 -125 -168 -3 7 10 55 26
108 59 183 66 245 66 615 -1 308 -2 344 -23 440 -23 112 -28 170 -13 170 5 0
21 -4 35 -10z m-11808 -182 c4 -4 1 -104 -6 -221 -13 -203 -6 -426 17 -590 l5
-39 -183 4 c-223 4 -243 11 -272 97 -37 113 -32 604 8 680 21 42 66 62 155 71
90 10 265 8 276 -2z m5660 -1 c5 -5 -5 -33 -21 -62 l-29 -54 -1022 -3 c-982
-3 -1023 -4 -1043 -22 -26 -23 -54 -96 -49 -127 3 -23 7 -24 108 -30 58 -4
483 -7 945 -8 462 -1 857 -4 878 -7 20 -4 37 -12 37 -18 0 -6 -14 -28 -31 -49
l-30 -37 -954 0 c-561 0 -956 -4 -959 -9 -11 -18 14 -204 33 -247 l20 -44 693
0 c676 0 918 -5 918 -20 0 -5 -21 -31 -46 -59 l-46 -51 -826 0 c-455 0 -851 3
-881 7 -45 5 -56 11 -72 37 -44 73 -76 341 -59 500 13 118 35 212 63 261 20
36 27 41 72 46 76 9 2292 5 2301 -4z m5799 -7 c26 -22 51 -83 70 -175 21 -97
24 -340 6 -435 -17 -94 -51 -198 -69 -212 -12 -10 -201 -14 -871 -16 -471 -2
-884 0 -918 3 -54 6 -63 9 -63 26 0 28 26 75 47 85 10 4 367 10 793 13 l774 6
19 49 c17 48 40 223 30 239 -2 4 -300 7 -662 7 -362 0 -705 3 -763 6 l-106 7
10 29 c6 15 21 37 35 48 25 19 41 20 627 20 330 0 658 3 729 7 144 7 142 5
111 95 -30 90 32 83 -730 86 l-674 3 0 48 c0 52 10 66 50 74 14 2 365 4 781 3
656 -1 758 -3 774 -16z m3654 1 c71 -14 90 -42 108 -157 22 -147 14 -508 -13
-584 -29 -84 -54 -93 -277 -98 l-177 -4 7 58 c5 33 8 224 8 426 0 320 2 368
15 372 21 7 276 -4 329 -13z m-7769 -576 c314 -47 432 -79 438 -120 3 -29 -65
-113 -125 -156 -146 -102 -348 -96 -550 17 -103 57 -157 106 -182 164 -29 67
-25 90 19 113 45 24 154 19 400 -18z"/>
<path d="M3087 12089 c-81 -32 -158 -92 -263 -202 -163 -170 -285 -371 -393
-647 -56 -141 -143 -426 -138 -450 2 -9 23 16 51 60 215 334 311 463 327 439
5 -8 7 -59 3 -114 -3 -55 -2 -111 3 -124 9 -23 11 -21 45 35 20 32 55 95 78
139 136 253 236 411 357 564 89 113 126 182 126 235 0 81 -87 109 -196 65z"/>
<path d="M13832 12104 c-7 -3 -19 -19 -28 -36 -29 -55 5 -134 119 -279 113
-145 210 -295 312 -484 141 -263 159 -291 165 -265 4 14 5 81 2 150 -5 119 -4
124 13 110 32 -26 133 -166 251 -345 63 -98 118 -175 120 -172 7 7 -19 102
-72 269 -130 402 -289 679 -513 890 -114 107 -207 159 -295 164 -33 2 -67 1
-74 -2z"/>
<path d="M7498 11099 c-43 -10 -153 -63 -163 -79 -8 -13 26 -13 101 1 32 6
154 16 269 23 l210 12 -39 17 c-77 34 -285 48 -378 26z"/>
<path d="M7540 10969 c-51 -10 -170 -66 -170 -80 0 -15 58 -10 180 15 148 30
200 45 200 55 0 21 -123 27 -210 10z"/>
<path d="M9296 8521 c-14 -22 87 -74 167 -86 72 -10 187 19 164 41 -4 4 -136
27 -284 48 -23 3 -44 2 -47 -3z"/>
<path d="M9185 8391 c11 -11 49 -34 85 -53 57 -29 76 -33 157 -36 99 -4 166
11 213 48 l25 20 -150 0 c-110 0 -175 6 -244 20 -114 24 -110 24 -86 1z"/>
<path d="M8810 7363 c0 -7 31 -66 69 -132 154 -269 261 -576 301 -866 16 -116
20 -135 32 -135 15 0 4 274 -16 383 -36 196 -115 389 -234 568 -71 108 -151
203 -152 182z"/>
<path d="M8922 6690 c6 -33 8 -165 6 -335 l-5 -280 24 52 c41 90 55 183 50
328 -5 142 -23 218 -61 262 l-24 28 10 -55z"/>
<path d="M9924 6032 c-271 -216 -377 -306 -364 -310 14 -5 135 57 223 114 103
66 374 341 355 359 -2 3 -99 -71 -214 -163z"/>
<path d="M9509 5944 c-222 -79 -601 -158 -1244 -259 -126 -20 -237 -39 -245
-42 -55 -21 336 -47 720 -47 309 -1 326 2 472 75 140 71 408 264 408 295 0 18
2 18 -111 -22z"/>
<path d="M8761 4187 c-33 -55 -70 -143 -97 -236 -29 -101 -33 -196 -10 -291
16 -70 67 -199 93 -240 l17 -25 8 35 c10 40 24 790 15 790 -3 0 -15 -15 -26
-33z"/>
<path d="M9075 2103 c-181 -104 -450 -215 -683 -284 -75 -21 -138 -41 -140
-44 -3 -3 29 -5 72 -5 242 0 599 149 816 340 59 52 34 49 -65 -7z"/>
<path d="M10360 8290 c-30 -4 -112 -11 -182 -15 -71 -4 -126 -11 -123 -16 11
-17 138 -49 195 -49 73 0 149 24 192 61 l33 28 -30 -1 c-16 0 -55 -4 -85 -8z"/>
</g>
</svg>
